<svg id="Layer_1" data-name="Layer 1" xmlns="http://www.w3.org/2000/svg" viewBox="0 0 1957.84 1889.79"><defs><style>.cls-1{fill:#222;}</style></defs><title>arrow</title><path class="cls-1" d="M791.93,640.32C756.14,770.68,701.24,893.78,627.3,1007c-66.75,102.17-148.56,201-253.37,265.85-82.77,51.22-190.76,84.7-285.21,44.87-101.92-43-111.7-163.64-51.43-246.94,69.43-96,201.86-146.3,310.88-180.52,122.35-38.43,251.48-55,379.57-51.64,259,6.73,517.36,93.29,726.24,246.94,224.48,165.12,399.79,425.1,407.88,710.63.29,9.75-13.78,9.25-14.77,0-26.17-241-137.26-458.16-316.79-621.47-174.12-158.43-398.47-261-629.89-300-236.28-39.84-487.31-12.84-702.79,95.07C144.29,996.44,91,1028,54.17,1076.07c-37.93,49.5-56,122.65-21.55,178.91,61.47,100.35,203.51,75.46,292.1,32.65,120-58,210.08-164.41,284-272.28,78.8-114.92,139.53-242.68,181-375.61a1.11,1.11,0,0,1,2.15.58Z"/><polygon class="cls-1" points="1871.07 1889.79 1803.49 1818.58 1735.96 1747.41 1856.7 1795.17 1957.84 1713.73 1914.46 1801.73 1871.07 1889.79"/><path class="cls-1" d="M291.06,281.07a138.2,138.2,0,0,1-4,19.39s-6.88,24.6-26.37,36.91c-.7,16.13-2.71,33.28-8,47.08,0,0-12,32.37-37.54,24.74-9.79-2.87-22.7-17.71-6.69-45.09,9.1-15.39,24.31-22.62,38.51-31.15-.16-6.29-.36-12.86-.55-19.43-3.87,11.06-10.3,19.83-20.9,19.92,0,0-18.3.42-20.47-45.2-.71-20.84,1.27-38.27,4-46.9,1.85-6.24,3.6-8.45,4.7-8.86,0,0,6.28-2.74,6.45,6.12.07,8-4.19,84.49,7.54,84.27,10.56-.38,16.15-31.13,17.38-52.49.48-15.53,2.06-26.61,4.31-34.33,2.13-6.27,3.92-8.2,5-8.61,0,0,6-2.71,6.17,6.16.18,4-.71,25.88-.68,48.24,0,0,.26,7.14.56,14.56.32,7.7.81,16.82.55,26.88a55.2,55.2,0,0,0,18.44-26.23,219.9,219.9,0,0,0,6.38-28.84,2.93,2.93,0,0,1,1.44-2.46c.78-.67,1.34-.73,2.29,0C291.42,267,292.62,272.29,291.06,281.07Zm-43.89,63.61a137.89,137.89,0,0,0-21.46,15.11c-3.66,3-10.19,10.94-12.64,17-10,24.39,4,27.05,4,27.05C236.58,408.69,246,366.88,247.17,344.68Z"/><path class="cls-1" d="M355.09,272.17a41.49,41.49,0,0,1-15.81,7c0,4.59-.27,7.49-.27,7.49s-.45,37.89-28.66,36.88c0,0-24.62.3-26.22-33.06-1-16.22,1.69-24.85,4.24-30a29.91,29.91,0,0,1-1.29-11c1.7-27.15,23.65-28.27,23.65-28.27,22.79-1.23,27.58,30,28.45,49.71a53.12,53.12,0,0,0,21-11.91,2.91,2.91,0,0,1,2.73-1.18,1.56,1.56,0,0,1,1.86,1.22C365.93,264.31,358.82,269.73,355.09,272.17ZM330.8,285s.08-1.73.07-4.31c-15.91,1.28-26-1.56-32.27-6.27-5.94,35.09,11.06,38.27,11.06,38.27C330,317.52,330.8,285,330.8,285Zm-.29-12.3c-.53-16.85-4.09-44.82-18.92-44.23,0,0-10.29.34-10.8,20.47C300.24,268.82,313.57,275,330.51,272.74Z"/><path class="cls-1" d="M442.37,263.42c-1.59,8.5-7,48.11-27.95,48,0,0-11.72.22-17.51-22.33-3.29,13.57-10,27-22.93,27.05,0,0-18.3.41-20.47-45.2-1-20.81,1.27-38.28,4-46.91,1.85-6.24,3.6-8.45,4.7-8.86,0,0,6.27-2.74,6.45,6.13.07,8-4.19,84.48,7.54,84.26,11.41-.47,16.93-36.66,17.67-57.39.52-12.68,2.2-22.91,3.8-28.83,1.85-6.23,3.88-8.48,5-8.89,0,0,6-2.71,6.17,6.16.07,8-3.94,84.17,7.79,84,11.41-.48,18.38-36.55,20.54-50a3,3,0,0,1,1.43-2.46,1.51,1.51,0,0,1,2.3,0C442.45,249.36,443.92,254.63,442.37,263.42Z"/><path class="cls-1" d="M521.39,247.89s-6.76,40.35,18.05,39.17c19.39-.83,26.66-29.48,26.66-29.48,2.15-8.57,3.71-17.35,4.53-22.61a2.75,2.75,0,0,1,1.71-2.49,1.23,1.23,0,0,1,2,.05c1.86,1.22,3,6.53,1.5,15.31a118,118,0,0,1-2.26,12.59s-5.47,34.18-34.45,36.41c-38.07,3-33.38-42.83-33.38-42.83,1.71-32,17.86-63.14,36.3-59.85,0,0,11.3,1,7.77,17.44,0,0-1.94,8-6.41,6.48,0,0-5.29-1.1-2.49-6.59,2.12-4,4-7.35,3-8.66C538.87,196.25,525.28,222.21,521.39,247.89Z"/><path class="cls-1" d="M663,237.67c-1.59,8.5-7,48.12-27.94,48,0,0-18.58.44-20.47-45.2a15.37,15.37,0,0,1-.15-3.71c-4.59,22-14.49,57.59-29.51,54.18,0,0-16.43-3.24-16-43.43.29-39.31,27.9-77.79,48.54-53.25l1.2-4.44c1.82-6.52,3.64-8.17,4.7-8.87,0,0,5.71-2.67,6.17,6.17.58,7.38-4.08,87.91,7.65,87.69,11.41-.48,18.39-36.55,20.54-50a3,3,0,0,1,1.44-2.46c.5-.63,1.34-.73,2.29,0C663,223.62,664.52,228.89,663,237.67ZM615.5,206.8a21,21,0,0,1,.6-4.65c-10.38-17.71-25.7,3.28-31.08,38.31-5.52,36.19,2.3,39.3,2.3,39.3,10.49,3.93,28.14-73.24,28.14-73.24Z"/><path class="cls-1" d="M743.56,228.27c-1.58,8.5-7,48.12-27.94,48,0,0-18.58.45-20.75-45.17,0,0,.2-20.37,1.38-30,1.47-11.93,1.08-15.32-1.32-16.19-7.15-2.32-22.32,34.71-20.91,91,1,5.9-2.92,6.93-2.92,6.93-5.34.91-7.55-5.71-7.55-5.71-7.83-18-8.22-48.35-8.22-48.35-.45-18.58,1.4-32.27,3.93-40,1.85-6.24,3.6-8.45,4.7-8.86,0,0,6.28-2.74,6.17,6.16.08,3.14-.6,17-.55,32.17,3.86-18.51,11.32-40.6,25.49-42,20.4-2.1,13.56,35.11,14.32,53.94,1,18.51,2.68,35.23,8.4,35.14,11.42-.47,18.39-36.55,20.26-49.95a3.26,3.26,0,0,1,1.72-2.5,1.22,1.22,0,0,1,2,.06C743.64,214.21,744.84,219.52,743.56,228.27Z"/><path class="cls-1" d="M901.09,209.89c-1.58,8.5-7,48.11-27.94,48,0,0-18.58.45-20.47-45.2a15.33,15.33,0,0,1-.14-3.71c-4.6,22-14.5,57.59-29.51,54.18,0,0-16.44-3.24-16-43.43.29-39.31,27.91-77.79,48.55-53.25l1.2-4.44c1.82-6.52,3.63-8.17,4.7-8.86,0,0,5.7-2.68,6.16,6.16.58,7.38-4.07,87.91,7.66,87.69,11.41-.47,18.38-36.55,20.54-50a2.94,2.94,0,0,1,1.43-2.46c.5-.63,1.35-.73,2.29,0C901.17,195.83,902.65,201.1,901.09,209.89ZM853.63,179a21.11,21.11,0,0,1,.6-4.66c-10.38-17.71-25.7,3.29-31.07,38.31-5.53,36.2,2.29,39.3,2.29,39.3,10.49,3.93,28.15-73.24,28.15-73.24Z"/><path class="cls-1" d="M947.47,204.47c-1.3,8.47-6.74,47.81-27.94,48-30.94.17-27.65-87.08-27.65-87.08,1.87-38.06,9.72-91.15,31.31-87.94,0,0,10.66.48,9.16,29.32-.93,26.48-11,55.47-25.45,66.9,0,16.92.31,69.05,14.8,67.94,11.35-1,18.67-36.58,20.55-50a2.73,2.73,0,0,1,1.71-2.49,1.22,1.22,0,0,1,2,0C947.84,190.38,949,195.69,947.47,204.47ZM907.42,161c5.28-6.35,10.25-17.83,13.08-30.48,5.07-20.38,7.17-44.13,2.1-45.83C912.84,82.09,908.69,139.91,907.42,161Z"/><path class="cls-1" d="M996.68,198.73a67.55,67.55,0,0,1-2,10s-2,12-15.31,23.57a76,76,0,0,1,3.86,15.89s4.37,27.59-17.49,31.86c0,0-18.12,4.41-21.71-14.09-2.6-14.89,7.06-25.48,20.87-34.83-7.3-18.36-19.91-30.65-29.18-51.07-12.7-27.76,5-36.12,5-36.12s13.2-7.28,17.32,10.87c2.46,11.19-1.41,22.25-4.71,28.36,7.3,13.48,16.27,26.48,22.48,40.38a34.86,34.86,0,0,0,11.45-17.39c2.56-7.47,3.37-15.3,3.94-20.24a3.24,3.24,0,0,1,1.72-2.49,1.22,1.22,0,0,1,2,.05C996.76,184.67,998.24,190,996.68,198.73Zm-47.87-24.51c1.7-5.08,3.31-11,2.71-16.09-1.15-9.9-4.26-9.53-5.11-9.43C944.46,149.21,938.57,152.76,948.81,174.22Zm19.3,67.12a2.1,2.1,0,0,0-.41-1.1c-13.57,9-17.15,20.06-15.36,25.59,1.09,4.46,4.78,6.61,9.46,4.91C968.1,268.29,972.45,258.89,968.11,241.34Z"/><path class="cls-1" d="M1061,189.79a41.57,41.57,0,0,1-15.81,7c0,4.59-.27,7.48-.27,7.48s-.46,37.9-28.67,36.89c0,0-24.62.29-26.22-33.06-1-16.22,1.69-24.85,4.24-30a29.9,29.9,0,0,1-1.29-11c1.71-27.14,23.65-28.27,23.65-28.27,22.79-1.23,27.59,30,28.45,49.72a53,53,0,0,0,21-11.91,2.9,2.9,0,0,1,2.73-1.18,1.55,1.55,0,0,1,1.86,1.22C1071.84,181.93,1064.73,187.35,1061,189.79Zm-24.3,12.87s.08-1.73.07-4.31c-15.9,1.29-26-1.55-32.27-6.27-5.93,35.1,11.06,38.28,11.06,38.28C1035.9,235.15,1036.7,202.66,1036.7,202.66Zm-.29-12.29c-.53-16.85-4.08-44.82-18.92-44.23,0,0-10.28.33-10.8,20.46C1006.14,186.45,1019.48,192.63,1036.41,190.37Z"/><path class="cls-1" d="M515.17,471.8c5.62,8.81,10.63,22.27,12.89,44.08,5.35,53.27-17.77,51.67-17.77,51.67C482.07,571.41,489,460.82,489,460.82c.73-37.93,7.7-91.21,29.26-88.28,0,0,10.63.2,10,29.22-.57,22.15-7.48,46.46-17.87,60.57a42.11,42.11,0,0,0,14.72.86,52.1,52.1,0,0,0,27.66-13.54,2.87,2.87,0,0,1,2.73-1.18,1.33,1.33,0,0,1,1.58,1.25c.91,5.34-6.2,10.75-9.93,13.2a57.48,57.48,0,0,1-24.76,8.91C517.25,472.42,515.17,471.8,515.17,471.8ZM504,469.66c.08,20.35,1.26,87,9,86.68C522.43,556.1,526.08,494,504,469.66Zm.18-13.21c5.24-6.63,9.61-18.32,12.47-30.69,4.76-20.62,6.26-44.59.94-46C507.86,377.19,504.91,435.45,504.21,456.45Z"/><path class="cls-1" d="M594.07,484.67c-1.59,8.5-7,48.12-27.94,48,0,0-18.58.45-20.47-45.2-1-20.81,1.27-38.27,3.7-46.87,1.86-6.24,3.6-8.45,4.7-8.86,0,0,6.28-2.74,6.45,6.12.08,8-4.22,84.21,7.79,83.95,11.41-.47,18.38-36.55,20.26-49.95a3.23,3.23,0,0,1,1.72-2.49,1.21,1.21,0,0,1,2,0C594.15,470.61,595.34,475.92,594.07,484.67ZM554,421.4a9.6,9.6,0,0,1-.28-4.84c.9-7,8.07-7,9.45-2.53a10.12,10.12,0,0,1-2.59,9.76C558.53,425.75,555,424.73,554,421.4Z"/><path class="cls-1" d="M674.67,475.26c-1.59,8.5-7,48.12-27.94,48,0,0-18.58.44-20.75-45.17,0,0,.2-20.38,1.37-30,1.48-11.92,1.08-15.32-1.31-16.18-7.15-2.32-22.32,34.71-20.91,91,1,5.91-2.92,6.94-2.92,6.94-5.34.9-7.55-5.72-7.55-5.72-7.83-18-8.22-48.35-8.22-48.35-.45-18.58,1.39-32.27,3.93-40,1.85-6.23,3.6-8.44,4.7-8.86,0,0,6.27-2.74,6.17,6.16.08,3.15-.6,17-.55,32.17,3.86-18.51,11.32-40.59,25.49-42,20.4-2.09,13.56,35.11,14.32,53.95,1,18.51,2.68,35.23,8.4,35.14,11.42-.48,18.38-36.55,20.26-50a3.24,3.24,0,0,1,1.72-2.49,1.22,1.22,0,0,1,2,.05C674.75,461.21,676,466.51,674.67,475.26Z"/><path class="cls-1" d="M727.26,449.35c.29,24.62,1,53.2,7.9,53,11.41-.47,18.67-36.58,20.54-50a3,3,0,0,1,1.44-2.46,1.5,1.5,0,0,1,2.29,0c1.86,1.22,3.06,6.53,1.5,15.31-1.59,8.5-6.72,48.08-27.94,48,0,0-18.58.45-20.47-45.2-.16-1.41,0-2.58-.15-3.71-4.59,22-14.21,57.56-29.51,54.19,0,0-16.21-3.84-15.74-44,.23-37.3,25.22-73.76,45.38-55.76,2.25-37.24,10.19-84.61,30.34-81.51,0,0,11.86.91,8.39,27.69,0,0-2.71,28.41-23.9,58.11,0,0,0,.29.07.57C727.4,423.53,726.94,436.77,727.26,449.35Zm-15.11-9.13c-.13-6-.13-10.88-.14-13.46-10.32-12.27-24,8.53-29,41.23-5.52,36.19,2.29,39.29,2.29,39.29C694,510.57,707.66,458.23,712.15,440.22Zm16.23-32.86c17.16-29.81,18-59.72,13.78-61.24C734.1,343.34,730.28,381.91,728.38,407.36Z"/><path class="cls-1" d="M943.07,443.94c-1.59,8.5-7,48.12-27.94,48,0,0-18.58.45-20.47-45.2,0,0,.2-20.38,1.37-30,1.48-11.92,1.08-15.32-1.59-16.15-5.36-1.67-13.35,20.76-15.63,57.72,0,0-.48,3.21-.79,15.29-.53,12.68-7.07,13.15-7.07,13.15-14.74,1.43-12.58-34.08-12.58-34.08s.38-16.38,2-31.77c1.47-11.93,1.36-15.35-1.32-16.19-7.15-2.32-17.83,33.9-16.2,89.62,0,.28.07.56.1.85,1,5.9-2.92,6.93-2.92,6.93-5.34.91-7.55-5.71-7.55-5.71-8.11-18-8.22-48.35-8.22-48.35-.73-18.55,1.4-32.27,3.65-40,1.85-6.24,3.6-8.45,4.7-8.86,0,0,6.27-2.74,6.45,6.13,0,2.86-.55,15-.63,29,2.73-18.38,8.57-37.12,20.76-38.25,20.4-2.1,11.15,36.54,11.91,55.37,0,0,0,2.29,0,5.15.53-17.54,3.87-62.65,23.7-64.68,20.11-2.06,13.56,35.11,14.32,53.94.73,18.55,2.68,35.24,8.12,35.18,11.41-.48,18.38-36.55,20.54-50a3,3,0,0,1,1.43-2.46,1.51,1.51,0,0,1,2.3,0C943.43,429.85,944.62,435.16,943.07,443.94Z"/><path class="cls-1" d="M1006.42,436.55c-.58,2.36-1.19,7-2.54,12.62,0,0-5.5,33.9-34.45,36.42-36,3.06-33.38-42.83-33.38-42.83.26-32.14,17.86-63.15,36.3-59.85,0,0,13.19,2.47,9.2,24.72a47.18,47.18,0,0,1-30.65,37.12c-.37,11.51,1.15,32,18.82,31.06,19.68-.87,26.66-29.49,26.66-29.49a145.62,145.62,0,0,0,4.53-22.6,4,4,0,0,1,1.72-2.49,1.22,1.22,0,0,1,2,0C1006.5,422.49,1008,427.77,1006.42,436.55Zm-54-3.44c8.25-3,17.64-10.95,21.78-24.62,3.49-11.87,0-16.92,0-16.92C969.47,385.25,957,408.49,952.41,433.11Z"/><path class="cls-1" d="M1157.45,418.93c-1.59,8.5-7,48.12-27.94,48,0,0-18.58.45-20.47-45.2a110.94,110.94,0,0,1,.9-19.31c1.32-10.76,2.41-18.63-.27-19.47-6.86-2.35-23.18,27.36-21.48,83.64.69,5.94-2.92,6.94-2.92,6.94-5.34.91-7.55-5.72-7.55-5.72-7.27-18.07-8.91-59.16-8.91-59.16-.67-13.11-.32-24.9-.32-24.9,1.86-38.06,9.68-91.44,31-88.19,0,0,11.29,1,8.4,30.27,0,0-2.23,34.95-24.13,65.88,0,4.59-.23,10.35-.13,16.07a31.69,31.69,0,0,0,.28,4.84c4-16.81,11.74-36.91,26.2-38.31,11.59-1.36,15,10.29,13.88,25.61-.42,8.65-.55,15-.42,21,.45,18.58,2.68,35.23,8.12,35.17,11.41-.47,18.38-36.55,20.54-50a3,3,0,0,1,1.43-2.46,1.51,1.51,0,0,1,2.3,0C1157.53,404.87,1159,410.15,1157.45,418.93Zm-73-46.23c17.9-33.34,18.59-66.68,14.12-68.16C1089.82,301.25,1085.84,348.16,1084.4,372.7Z"/><path class="cls-1" d="M1220.8,411.54c-.58,2.36-1.19,7-2.54,12.62,0,0-5.5,33.9-34.45,36.41-36,3.06-33.38-42.83-33.38-42.83.26-32.14,17.86-63.15,36.3-59.85,0,0,13.19,2.47,9.2,24.73a47.18,47.18,0,0,1-30.65,37.11c-.37,11.51,1.15,32,18.82,31.06,19.68-.86,26.66-29.48,26.66-29.48a145.71,145.71,0,0,0,4.53-22.61,4,4,0,0,1,1.72-2.49,1.22,1.22,0,0,1,2,.05C1220.88,397.48,1222.36,402.75,1220.8,411.54Zm-54-3.45c8.25-3,17.64-10.94,21.78-24.61,3.49-11.88,0-16.92,0-16.92C1183.85,360.23,1171.37,383.48,1166.79,408.09Z"/><path class="cls-1" d="M1283,404.27c-1.59,8.5-7,48.12-27.94,48-26.57.8-20.06-39.23-18.91-58.86.76-10.69-7.6-16-12.17-18.36a147.51,147.51,0,0,1-2.65,33.85c-.8,3-2.13,6.27-6.23,5.6-2.89-.24-1.77-2.95-1.25-5.87,0,0,3-18.13,1.56-35.73-18.49-6.16-22.3-28.94-14.81-33.54,8.84-5.33,16.21,8.72,16.21,8.72,3.81,5.58,5.77,12.51,6.66,20.15,10.49,3.94,26.17,13,25.51,36.87-.36,19,2.53,36.4,8.25,36.31,11.41-.48,18.39-36.55,20.54-50a3,3,0,0,1,1.44-2.46c.5-.63,1.35-.73,2.29,0C1283.1,390.22,1284.58,395.49,1283,404.27ZM1214.22,365c-1.6-6.41-5.39-19.15-9.84-18.06C1199.1,348.42,1207.47,361.2,1214.22,365Z"/><path class="cls-1" d="M1346.37,396.88c-.58,2.36-1.19,7-2.54,12.63,0,0-5.5,33.89-34.45,36.41C1273.33,449,1276,403.09,1276,403.09c.26-32.14,17.86-63.15,36.3-59.85,0,0,13.19,2.47,9.2,24.72a47.18,47.18,0,0,1-30.65,37.12c-.37,11.51,1.15,32,18.82,31.06,19.68-.86,26.66-29.49,26.66-29.49a145.62,145.62,0,0,0,4.53-22.6,4,4,0,0,1,1.72-2.49,1.22,1.22,0,0,1,2,.05C1346.45,382.82,1347.93,388.1,1346.37,396.88Zm-54-3.44c8.25-3,17.64-10.95,21.78-24.62,3.49-11.87,0-16.92,0-16.92C1309.42,345.58,1296.94,368.82,1292.36,393.44Z"/></svg>