<?xml version="1.0" encoding="utf-8"?>
<!-- Generator: Adobe Illustrator 23.1.0, SVG Export Plug-In . SVG Version: 6.00 Build 0)  -->
<svg version="1.1" id="Layer_1" xmlns="http://www.w3.org/2000/svg" xmlns:xlink="http://www.w3.org/1999/xlink" x="0px" y="0px"
	 viewBox="0 0 100.4 100.4" style="enable-background:new 0 0 100.4 100.4;" xml:space="preserve">
<style type="text/css">
	.st0{fill:#222222;}
</style>
<path class="st0" d="M93.1,76.2c0-0.1,0.1-0.3,0.1-0.5V22.6c0-0.2,0-0.3-0.1-0.5c0,0,0,0,0-0.1c-0.1-0.2-0.2-0.3-0.3-0.5l0,0l0,0
	c-0.1-0.1-0.3-0.2-0.4-0.3l0,0c-0.2-0.1-0.3-0.1-0.5-0.1c0,0,0,0-0.1,0l0,0H8.5c0,0,0,0-0.1,0l0,0c-0.2,0-0.4,0.1-0.5,0.1l0,0
	c-0.2,0.1-0.3,0.2-0.4,0.3l0,0l0,0c-0.1,0.1-0.2,0.3-0.3,0.5c0,0,0,0,0,0.1C7,22.3,7,22.5,7,22.6v53.1c0,0.2,0,0.3,0.1,0.5
	c0,0,0,0,0,0.1c0.1,0.2,0.2,0.3,0.3,0.5l0,0l0,0c0,0.1,0.1,0.1,0.2,0.1c0,0,0,0,0.1,0.1c0.1,0,0.1,0.1,0.2,0.1c0,0,0,0,0.1,0
	c0.2,0.1,0.4,0.1,0.6,0.1h83.2c0.2,0,0.4,0,0.6-0.1h0.1c0.1,0,0.1-0.1,0.2-0.1c0,0,0.1,0,0.1-0.1c0.1,0,0.1-0.1,0.1-0.1l0,0l0,0
	C92.9,76.6,93,76.5,93.1,76.2C93.1,76.3,93.1,76.2,93.1,76.2z M10,26l25.2,23.1L10,72.3V26z M61.7,48c-0.1,0.1-0.2,0.1-0.3,0.2
	c0,0,0,0.1-0.1,0.1L50.1,58.6L12.3,24.1h75.5L61.7,48z M37.4,51.1L49,61.7c0.3,0.3,0.6,0.4,1,0.4s0.7-0.1,1-0.4l11.5-10.5l25.2,23
	H12.3L37.4,51.1z M64.8,49.2L90.2,26v46.3L64.8,49.2z"/>
</svg>
