<svg id="Layer_1" data-name="Layer 1" xmlns="http://www.w3.org/2000/svg" viewBox="0 0 900.12 73.15"><defs><style>.cls-1{fill:#1a1a1a;}.cls-2{fill:#fc245b;}</style></defs><title>logo_1</title><path class="cls-1" d="M57.75.41V72.73H54.86L3.51,6.82V72.73H0V.41H2.89L54.24,66.33V.41Z"/><path class="cls-1" d="M92,.41h3.51V72.73H92Z"/><path class="cls-1" d="M140.56,68.4a34.8,34.8,0,0,1-13.38-13.13,36.52,36.52,0,0,1-4.86-18.7,36.57,36.57,0,0,1,4.86-18.7A34.78,34.78,0,0,1,140.56,4.75,38.56,38.56,0,0,1,159.62,0a39.57,39.57,0,0,1,13.95,2.43,30.1,30.1,0,0,1,11.16,7.18l-2.17,2.27q-9-8.67-22.84-8.68a34.47,34.47,0,0,0-17.25,4.39,32.18,32.18,0,0,0-12.19,12,33.14,33.14,0,0,0-4.44,16.94,33.15,33.15,0,0,0,4.44,17,32.08,32.08,0,0,0,12.19,12,34.37,34.37,0,0,0,17.25,4.39q13.74,0,22.84-8.78l2.17,2.28a30.86,30.86,0,0,1-11.11,7.23,40.67,40.67,0,0,1-33.06-2.27Z"/><path class="cls-1" d="M222,68.4a34.8,34.8,0,0,1-13.38-13.13,36.52,36.52,0,0,1-4.86-18.7,36.57,36.57,0,0,1,4.86-18.7A34.78,34.78,0,0,1,222,4.75a40.72,40.72,0,0,1,38.17,0,34.66,34.66,0,0,1,13.44,13.12,36.67,36.67,0,0,1,4.85,18.7,36.61,36.61,0,0,1-4.85,18.7A34.69,34.69,0,0,1,260.14,68.4a40.72,40.72,0,0,1-38.17,0Zm36.32-2.8a31.88,31.88,0,0,0,12.19-12,33.34,33.34,0,0,0,4.44-17,33.3,33.3,0,0,0-4.44-17,32,32,0,0,0-12.19-12,36.37,36.37,0,0,0-34.46,0,32,32,0,0,0-12.14,12,33.3,33.3,0,0,0-4.44,17,33.34,33.34,0,0,0,4.44,17,31.89,31.89,0,0,0,12.14,12,36.37,36.37,0,0,0,34.46,0Z"/><path class="cls-1" d="M305.29.41h3.52V69.53h42.36v3.2H305.29Z"/><path class="cls-1" d="M425.67,51.55H382.39l-9.72,21.18h-3.82L402.33.41h3.4l33.48,72.32h-3.82Zm-1.34-3L404.08,4.44,383.73,48.56Z"/><path class="cls-1" d="M464.37,70.36a27.15,27.15,0,0,1-10.9-7.23l1.86-2.48a26.21,26.21,0,0,0,10.07,6.76,36.06,36.06,0,0,0,13.79,2.64q10.85,0,16.38-4.29a13.32,13.32,0,0,0,5.52-11,11.8,11.8,0,0,0-2.89-8.32,18.29,18.29,0,0,0-7.13-4.75,99,99,0,0,0-11.57-3.36,107.59,107.59,0,0,1-12.6-3.82,20.29,20.29,0,0,1-8.06-5.68Q455.53,25,455.53,18.6a17,17,0,0,1,2.69-9.3,18.47,18.47,0,0,1,8.21-6.77A33.1,33.1,0,0,1,480.23,0a39.51,39.51,0,0,1,11.62,1.76,30.54,30.54,0,0,1,9.76,4.85L500.06,9.4a31.68,31.68,0,0,0-9.45-4.7,34.86,34.86,0,0,0-10.28-1.6q-10.54,0-16,4.39a13.7,13.7,0,0,0-5.43,11.11A11.81,11.81,0,0,0,461.89,27a19.11,19.11,0,0,0,7.23,4.8,97.06,97.06,0,0,0,11.52,3.41A117.39,117.39,0,0,1,493.24,39a19.7,19.7,0,0,1,8,5.58q3.25,3.78,3.25,10.07a16.8,16.8,0,0,1-2.73,9.3,18.44,18.44,0,0,1-8.42,6.72,35.2,35.2,0,0,1-14.05,2.48A40.29,40.29,0,0,1,464.37,70.36Z"/><path class="cls-1" d="M624.05,59.3V72.73h-56V.41h54.66V13.84h-38V29.55h33.58v13H584.69V59.3Z"/><path class="cls-1" d="M719.52.41V72.73H705.78l-36.06-43.9v43.9H653.19V.41H667l36,43.91V.41Z"/><path class="cls-2" d="M765.19.41V44.32L801.14.41H815V72.73H798.45V28.83L762.4,72.73H748.66V.41Z"/><path class="cls-1" d="M900.12,59.3V72.73h-56V.41h54.66V13.84h-38V29.55h33.57v13H860.76V59.3Z"/></svg>