<?xml version="1.0" encoding="utf-8"?>
<!-- Generator: Adobe Illustrator 23.1.0, SVG Export Plug-In . SVG Version: 6.00 Build 0)  -->
<svg version="1.1" id="Layer_1" xmlns="http://www.w3.org/2000/svg" xmlns:xlink="http://www.w3.org/1999/xlink" x="0px" y="0px"
	 viewBox="0 0 100.4 100.4" style="enable-background:new 0 0 100.4 100.4;" xml:space="preserve">
<style type="text/css">
	.st0{fill:#222222;}
</style>
<g>
	<g>
		<path class="st0" d="M50.1,89.4l-21-35.2c-2.5-4-3.9-8.7-3.9-13.4c0-13.9,11.3-25.3,25.3-25.3c13.9,0,25.3,11.3,25.3,25.3
			c0,4.7-1.3,9.4-3.9,13.4l-0.1,0.2L56,79.9c-0.2,0.3-0.3,0.4-0.4,0.7l-0.1,0.2L50.1,89.4z M31.9,53l18.3,30.6L53,79
			c0.2-0.3,0.3-0.4,0.5-0.7L69.2,53c0.1-0.1,0.1-0.2,0.2-0.4c2.2-3.6,3.4-7.6,3.4-11.8c0-12.3-10-22.3-22.3-22.3s-22.3,10-22.3,22.3
			c0,4.2,1.2,8.3,3.4,11.8l0,0C31.7,52.8,31.8,52.9,31.9,53z"/>
	</g>
	<g>
		<path class="st0" d="M60.2,40.8c0-5.4-4.4-9.7-9.7-9.7s-9.7,4.4-9.7,9.7s4.4,9.7,9.7,9.7C55.8,50.6,60.2,46.2,60.2,40.8z
			 M43.7,40.8c0-3.7,3-6.7,6.7-6.7s6.7,3,6.7,6.7s-3,6.7-6.7,6.7S43.7,44.5,43.7,40.8z"/>
	</g>
</g>
</svg>
