<?xml version="1.0" encoding="utf-8"?>
<!-- Generator: Adobe Illustrator 23.1.0, SVG Export Plug-In . SVG Version: 6.00 Build 0)  -->
<svg version="1.1" id="Layer_1" xmlns="http://www.w3.org/2000/svg" xmlns:xlink="http://www.w3.org/1999/xlink" x="0px" y="0px"
	 viewBox="0 0 100.4 100.4" style="enable-background:new 0 0 100.4 100.4;" xml:space="preserve">
<style type="text/css">
	.st0{fill:#222222;}
</style>
<g>
	<path class="st0" d="M69.3,8.6H28c-5.3,0-9.7,4.3-9.7,9.6v66.2c0,5.3,4.3,9.6,9.7,9.6h41.3c5.3,0,9.7-4.3,9.7-9.6V18.2
		C79,12.9,74.7,8.6,69.3,8.6z M76,84.4c0,3.7-3,6.6-6.7,6.6H28c-3.7,0-6.7-3-6.7-6.6V18.2c0-3.7,3-6.6,6.7-6.6h41.3
		c3.7,0,6.7,3,6.7,6.6V84.4z"/>
	<path class="st0" d="M60.9,18.1H36.2c-0.8,0-1.5,0.7-1.5,1.5s0.7,1.5,1.5,1.5h24.7c0.8,0,1.5-0.7,1.5-1.5S61.7,18.1,60.9,18.1z"/>
	<path class="st0" d="M48.6,75.4c-2.8,0-5,2.3-5,5c0,1.3,0.5,2.6,1.5,3.5c0.9,0.9,2.2,1.4,3.5,1.4l0,0c2.8,0,5-2.3,5-5
		C53.6,77.6,51.4,75.4,48.6,75.4z M48.7,82.4L48.7,82.4c-0.5,0-1-0.2-1.4-0.6s-0.6-0.9-0.6-1.4c0-1.1,0.9-2,2-2l0,0c1.1,0,2,0.9,2,2
		S49.8,82.4,48.7,82.4z"/>
</g>
</svg>
